<svg width="469" height="105" viewBox="0 0 469 105" fill="none" xmlns="http://www.w3.org/2000/svg">
<path d="M3 93.7624L21.4407 87.461C38.768 81.5401 53.5779 69.9229 63.455 54.5042L81.0303 27.068C86.2987 18.8436 93.8031 12.2921 102.663 8.18194V8.18194C116.563 1.73386 132.616 1.82909 146.438 8.4416L147.171 8.79189C154.973 12.5242 161.744 18.1064 166.896 25.0527L199.118 68.4934C203.948 75.0054 209.729 80.7554 216.266 85.5509L218.436 87.1426C231.595 96.7954 247.49 102 263.81 102H266.104C277.079 102 287.888 99.3222 297.594 94.1988V94.1988C308.348 88.5218 317.367 80.0432 323.698 69.6601L330.373 58.7116C334.474 51.9854 340.222 46.4163 347.075 42.5309L348.428 41.764C359.376 35.5565 372.496 34.4633 384.321 38.7732V38.7732C401.954 45.2004 420.352 49.2942 439.048 50.9504L469 53.604" stroke="#00024C" stroke-width="6" stroke-linecap="round"/>
</svg>
